<svg width="112" height="45" viewBox="0 0 112 45" fill="none" xmlns="http://www.w3.org/2000/svg">
<path d="M0 0H112V44H0V0Z" fill="#D08B5B"/>
<path fill-rule="evenodd" clip-rule="evenodd" d="M30 28C33.3137 28 36 25.3137 36 22C36 18.6863 33.3137 16 30 16C26.6863 16 24 18.6863 24 22C24 25.3137 26.6863 28 30 28Z" fill="black" fill-opacity="0.6"/>
<path d="M25 27C25 27 19 34.2707 19 38.2707C19 41.5847 21.686 44.2707 25 44.2707C28.314 44.2707 31 41.5847 31 38.2707C31 34.2707 25 27 25 27Z" fill="#92D9FF"/>
<path fill-rule="evenodd" clip-rule="evenodd" d="M82 28C85.3137 28 88 25.3137 88 22C88 18.6863 85.3137 16 82 16C78.6863 16 76 18.6863 76 22C76 25.3137 78.6863 28 82 28Z" fill="black" fill-opacity="0.6"/>
</svg>
